<svg xmlns="http://www.w3.org/2000/svg" viewBox="0 0 128 128" fill="none">
  <!-- Hadoop Logo - Yellow Cartoon Elephant -->
  <defs>
    <linearGradient id="hadoop-gradient" x1="0%" y1="0%" x2="100%" y2="100%">
      <stop offset="0%" style="stop-color:#FFD700"/>
      <stop offset="100%" style="stop-color:#FFED4E"/>
    </linearGradient>
  </defs>
  
  <!-- Background circle -->
  <circle cx="64" cy="64" r="60" fill="url(#hadoop-gradient)" stroke="#FFD700" stroke-width="4"/>
  
  <!-- Elephant silhouette -->
  <path d="M30 80 Q25 70 30 60 Q35 50 45 50 Q55 50 65 50 Q75 50 85 50 Q95 50 100 60 Q105 70 100 80 Q95 90 85 90 Q75 90 65 90 Q55 90 45 90 Q35 90 30 80 Z" fill="#FFD700"/>
  
  <!-- Elephant trunk -->
  <path d="M65 60 Q65 70 65 80 Q65 85 60 85 Q55 85 55 80 Q55 70 55 60 Q55 55 60 55 Q65 55 65 60 Z" fill="#FFD700"/>
  
  <!-- Elephant eye -->
  <circle cx="75" cy="65" r="3" fill="#8B4513"/>
  
  <!-- Elephant ear -->
  <ellipse cx="40" cy="60" rx="8" ry="12" fill="#FFD700"/>
  
  <!-- Elephant body -->
  <ellipse cx="70" cy="95" rx="15" ry="20" fill="#FFD700"/>
  
  <!-- Elephant legs -->
  <rect x="60" y="95" width="6" height="15" rx="3" fill="#FFD700"/>
  <rect x="74" y="95" width="6" height="15" rx="3" fill="#FFD700"/>
  
  <!-- Elephant tail -->
  <path d="M55 90 Q50 85 55 80 Q60 75 65 80 Q60 85 55 90 Z" fill="#FFD700"/>
</svg>
