<svg xmlns="http://www.w3.org/2000/svg" viewBox="0 0 128 128" fill="none">
  <!-- RabbitMQ Logo - Orange Rabbit-like Shape -->
  <defs>
    <linearGradient id="rabbitmq-gradient" x1="0%" y1="0%" x2="100%" y2="100%">
      <stop offset="0%" style="stop-color:#FF6600"/>
      <stop offset="100%" style="stop-color:#FF8533"/>
    </linearGradient>
  </defs>
  
  <!-- Background circle -->
  <circle cx="64" cy="64" r="60" fill="url(#rabbitmq-gradient)" stroke="#FF6600" stroke-width="4"/>
  
  <!-- Rabbit ears -->
  <path d="M45 35 Q35 25 25 35 Q35 45 45 35" fill="#FF6600" stroke="#FF6600" stroke-width="2"/>
  <path d="M83 35 Q93 25 103 35 Q93 45 83 35" fill="#FF6600" stroke="#FF6600" stroke-width="2"/>
  
  <!-- Rabbit head -->
  <ellipse cx="64" cy="55" rx="25" ry="20" fill="#FF6600"/>
  
  <!-- Eyes -->
  <circle cx="55" cy="50" r="4" fill="white"/>
  <circle cx="73" cy="50" r="4" fill="white"/>
  <circle cx="55" cy="50" r="2" fill="#FF6600"/>
  <circle cx="73" cy="50" r="2" fill="#FF6600"/>
  
  <!-- Nose -->
  <ellipse cx="64" cy="58" rx="3" ry="2" fill="white"/>
  
  <!-- Whiskers -->
  <line x1="40" y1="58" x2="30" y2="58" stroke="white" stroke-width="2"/>
  <line x1="40" y1="60" x2="30" y2="62" stroke="white" stroke-width="2"/>
  <line x1="88" y1="58" x2="98" y2="58" stroke="white" stroke-width="2"/>
  <line x1="88" y1="60" x2="98" y2="62" stroke="white" stroke-width="2"/>
  
  <!-- Body -->
  <ellipse cx="64" cy="85" rx="20" ry="25" fill="#FF6600"/>
  
  <!-- Paws -->
  <circle cx="50" cy="100" r="6" fill="#FF6600"/>
  <circle cx="78" cy="100" r="6" fill="#FF6600"/>
  
  <!-- Tail -->
  <circle cx="45" cy="75" r="8" fill="#FF6600"/>
</svg>
