<svg xmlns="http://www.w3.org/2000/svg" viewBox="0 0 128 128" fill="none">
  <!-- Spring Cloud Data Flow Logo -->
  <defs>
    <linearGradient id="scdf-gradient" x1="0%" y1="0%" x2="100%" y2="100%">
      <stop offset="0%" style="stop-color:#6DB33F"/>
      <stop offset="100%" style="stop-color:#5A9E2F"/>
    </linearGradient>
    <linearGradient id="scdf-accent" x1="0%" y1="0%" x2="100%" y2="100%">
      <stop offset="0%" style="stop-color:#4A7C59"/>
      <stop offset="100%" style="stop-color:#3D6B4A"/>
    </linearGradient>
  </defs>
  
  <!-- Background circle -->
  <circle cx="64" cy="64" r="60" fill="url(#scdf-gradient)" stroke="#6DB33F" stroke-width="4"/>
  
  <!-- Spring leaf -->
  <path d="M64 25 Q80 35 85 50 Q90 65 80 75 Q70 85 64 85 Q58 85 48 75 Q38 65 43 50 Q48 35 64 25 Z" fill="white"/>
  
  <!-- Data flow arrows -->
  <path d="M25 40 L35 40 L35 50 L45 50 L45 60 L55 60" stroke="white" stroke-width="3" stroke-linecap="round" fill="none"/>
  <path d="M25 70 L35 70 L35 80 L45 80 L45 90 L55 90" stroke="white" stroke-width="3" stroke-linecap="round" fill="none"/>
  
  <!-- Data nodes -->
  <circle cx="25" cy="40" r="4" fill="white"/>
  <circle cx="25" cy="70" r="4" fill="white"/>
  <circle cx="55" cy="60" r="4" fill="white"/>
  <circle cx="55" cy="90" r="4" fill="white"/>
  
  <!-- Central processing hub -->
  <rect x="55" y="65" width="18" height="20" rx="3" fill="url(#scdf-accent)" stroke="white" stroke-width="2"/>
  <circle cx="64" cy="75" r="3" fill="white"/>
  
  <!-- Flow lines -->
  <line x1="55" y1="60" x2="55" y2="65" stroke="white" stroke-width="2"/>
  <line x1="55" y1="90" x2="55" y2="85" stroke="white" stroke-width="2"/>
</svg>
